# xmcd CD database file
#
# Track frame offsets:
#	150
#	25152
#	44627
#	72035
#	98397
#	118355
#	142407
#	170454
#	202479
#	222960
#	249261
#	277966
#
# Disc length: 4045 seconds
#
# Revision: 0
# Processed by: cddbd v1.5.1PL2 Copyright (c) Steve Scherf et al.
# Submitted via: CDex 1.51
#
DISCID=ba0fcb0c
DTITLE=Rolf Ericson Quintet - Ellington and Strayhorn
DYEAR=1995
DGENRE=Jazz
TTITLE0=The Intamacy of the Blues
TTITLE1=Sentimental Lady
TTITLE2=Prelude to a Kiss
TTITLE3=Paris Blues
TTITLE4=The Starcrossed Lovers
TTITLE5=Serenade to Sweden
TTITLE6=Just Squeeze Me (But Don't Tease Me)
TTITLE7=Chelsea Bridge
TTITLE8=Portrait of a Silk-Thread
TTITLE9=Daydream
TTITLE10=Fleurette Africaine
TTITLE11=Lotus Blossom
EXTD=YEAR: 1995
EXTT0=
EXTT1=
EXTT2=
EXTT3=
EXTT4=
EXTT5=
EXTT6=
EXTT7=
EXTT8=
EXTT9=
EXTT10=
EXTT11=
PLAYORDER=
